<?xml version="1.0" standalone="no"?>
<!DOCTYPE svg PUBLIC "-//W3C//DTD SVG 20010904//EN"
 "http://www.w3.org/TR/2001/REC-SVG-20010904/DTD/svg10.dtd">
<svg version="1.0" xmlns="http://www.w3.org/2000/svg"
 width="1257.000000pt" height="1257.000000pt" viewBox="0 0 1257.000000 1257.000000"
 preserveAspectRatio="xMidYMid meet">
<metadata>
Created by potrace 1.14, written by Peter Selinger 2001-2017
</metadata>
<g transform="translate(0.000000,1257.000000) scale(0.100000,-0.100000)"
fill="#000000" stroke="none">
<path d="M5999 12566 c-2 -2 -56 -6 -119 -10 -63 -4 -131 -8 -150 -11 -19 -2
-62 -6 -95 -10 -79 -7 -195 -21 -265 -31 -72 -11 -217 -36 -282 -50 -37 -7
-82 -16 -100 -19 -58 -10 -310 -73 -418 -104 -623 -178 -1197 -441 -1741 -797
-95 -62 -387 -270 -399 -284 -3 -3 -52 -43 -110 -89 -58 -46 -109 -89 -115
-95 -5 -6 -41 -38 -80 -71 -95 -81 -207 -188 -335 -320 -146 -150 -167 -172
-230 -246 -30 -35 -59 -69 -65 -75 -36 -40 -100 -119 -146 -179 -29 -38 -56
-71 -61 -73 -4 -2 -8 -10 -8 -18 0 -8 -4 -14 -8 -14 -5 0 -26 -26 -48 -57 -44
-66 -45 -67 -77 -108 -19 -24 -93 -135 -157 -235 -5 -8 -20 -31 -32 -50 -186
-284 -419 -756 -559 -1131 -75 -201 -203 -617 -224 -731 -3 -13 -12 -50 -20
-84 -8 -33 -24 -110 -36 -170 -26 -139 -25 -136 -39 -224 -7 -41 -14 -83 -16
-93 -2 -10 -6 -45 -9 -78 -4 -33 -8 -69 -10 -79 -2 -10 -7 -50 -10 -87 -4 -37
-8 -79 -10 -93 -12 -81 -20 -293 -20 -560 0 -271 4 -364 20 -570 6 -77 27
-254 40 -335 3 -16 7 -46 10 -65 2 -19 9 -61 15 -92 5 -32 14 -82 19 -110 5
-29 19 -96 31 -148 12 -52 23 -106 26 -120 25 -128 142 -515 233 -770 104
-291 324 -744 513 -1056 108 -177 336 -508 418 -607 6 -7 38 -46 71 -87 251
-308 571 -635 829 -846 19 -16 37 -31 40 -34 28 -30 279 -221 415 -317 103
-72 351 -233 360 -233 2 0 28 -15 57 -33 218 -138 655 -346 988 -470 276 -103
676 -220 890 -261 14 -3 50 -10 80 -16 30 -6 69 -13 85 -15 17 -3 53 -10 80
-15 28 -6 68 -12 90 -15 22 -2 50 -6 62 -9 12 -3 46 -7 75 -10 29 -4 69 -8 88
-11 19 -2 60 -7 90 -10 30 -3 71 -8 90 -10 211 -26 880 -27 1115 -1 17 2 63 7
104 11 41 4 82 8 90 10 9 2 45 6 81 10 36 4 72 8 80 10 14 2 69 11 135 21 17
3 37 7 45 9 8 2 31 6 50 9 174 26 554 122 785 198 50 16 97 31 105 33 48 12
458 171 475 185 6 4 21 11 35 15 39 11 434 208 535 265 647 371 1204 822 1645
1330 30 34 65 75 78 89 13 14 35 42 50 61 15 19 35 44 45 55 10 11 53 65 95
120 42 55 82 106 89 113 7 7 13 17 13 21 0 4 9 19 20 32 31 37 31 37 112 159
71 107 228 358 228 364 0 2 24 47 54 99 244 431 484 1040 601 1527 25 102 84
385 90 430 3 25 8 52 10 60 2 8 7 35 10 60 3 25 8 56 10 70 8 44 14 83 20 140
3 30 8 76 11 101 35 289 40 962 9 1219 -1 14 -6 54 -9 90 -8 68 -34 275 -42
323 -2 15 -6 42 -9 60 -27 163 -92 452 -146 647 -11 41 -22 82 -24 90 -21 91
-148 448 -231 647 -67 163 -246 537 -269 563 -8 8 -13 17 -12 20 1 5 -32 64
-100 178 -23 40 -43 75 -43 77 0 3 -16 28 -35 55 -19 27 -35 52 -35 55 0 14
-272 400 -353 501 -235 294 -430 505 -676 734 -139 129 -119 111 -226 200 -49
41 -92 78 -95 81 -3 3 -66 52 -140 107 -74 56 -141 107 -147 112 -22 18 -371
250 -377 250 -3 0 -30 15 -59 34 -166 106 -513 283 -766 391 -293 125 -634
241 -913 311 -68 17 -319 72 -358 79 -19 3 -84 15 -143 25 -60 11 -130 22
-155 25 -26 3 -56 8 -67 10 -11 2 -47 7 -80 10 -33 3 -71 8 -85 10 -14 2 -65
7 -115 11 -49 3 -101 8 -115 11 -30 4 -716 13 -721 9z"/>
</g>
</svg>
